<?xml version="1.0" encoding="UTF-8"?>
<svg width="120px" height="120px" viewBox="0 0 120 120" version="1.1" xmlns="http://www.w3.org/2000/svg" xmlns:xlink="http://www.w3.org/1999/xlink">
    <!-- Generator: Sketch 51.3 (57544) - http://www.bohemiancoding.com/sketch -->
    <title>头像</title>
    <desc>Created with Sketch.</desc>
    <defs></defs>
    <g id="个人中心" stroke="none" stroke-width="1" fill="none" fill-rule="evenodd">
        <g id="个人信息" transform="translate(-1030.000000, -255.000000)" fill="#EDEDED" fill-rule="nonzero">
            <g id="头像" transform="translate(1030.000000, 255.000000)">
                <path d="M60.1706945,0.481203008 C27.5289764,0.481203008 0.822055138,27.1880203 0.822055138,59.8299095 C0.822055138,92.4712618 27.5289764,119.177945 60.1708288,119.177945 C92.8120099,119.177945 119.518797,92.4712618 119.518797,59.8299095 C119.518797,27.187886 92.8120099,0.481203008 60.1708288,0.481203008 L60.1706945,0.481203008 Z M61.6541588,18.2856136 C84.2807815,18.2856136 84.2807815,35.3486268 84.2807815,44.9922966 C84.2807815,54.6369061 75.3783849,72.4413167 61.6541588,72.811814 C48.3008324,72.811814 39.0275362,55.0075377 39.0275362,44.9922966 C39.0276704,35.3484926 39.0275362,18.2856136 61.6541588,18.2856136 Z M60.1708288,115.839576 C43.1078349,115.839576 27.5289764,108.049735 17.1429813,95.809765 C18.6264456,92.1000933 20.4812122,88.0199243 23.0779124,85.7946582 C28.6415411,81.3430522 45.3332327,73.9246484 45.3332327,73.9246484 L55.7192278,93.9549963 L57.5738602,89.1327587 L54.6065289,83.1978209 L60.5414599,77.2634201 L66.476391,83.1978209 L63.8795566,89.5035245 L65.3635579,94.3258963 L76.1203184,74.666717 C76.1203184,74.666717 92.8118757,82.0849865 98.3760414,86.5365925 C100.972205,88.3908243 102.826971,91.729596 103.939804,94.6965279 C93.9248431,107.679238 77.9749508,115.839576 60.1706945,115.839576 L60.1708288,115.839576 Z" id="Shape"></path>
            </g>
        </g>
    </g>
</svg>