<?xml version="1.0" encoding="UTF-8"?>
<svg width="137px" height="161px" viewBox="0 0 137 161" version="1.1" xmlns="http://www.w3.org/2000/svg" xmlns:xlink="http://www.w3.org/1999/xlink">
    <!-- Generator: Sketch 52.2 (67145) - http://www.bohemiancoding.com/sketch -->
    <title>分组 2</title>
    <desc>Created with Sketch.</desc>
    <defs>
        <polygon id="path-1" points="0.680120455 0.97748004 134.623234 0.97748004 134.623234 68.7816092 0.680120455 68.7816092"></polygon>
        <path d="M68.2195455,0.390804598 C30.6521818,0.390804598 0.198090909,30.7469425 0.198090909,68.1954023 C0.198090909,105.643862 30.6521818,136 68.2195455,136 C105.785341,136 136.237864,105.643862 136.237864,68.1954023 C136.237864,30.7469425 105.785341,0.390804598 68.2195455,0.390804598 Z" id="path-3"></path>
    </defs>
    <g id="Page-1" stroke="none" stroke-width="1" fill="none" fill-rule="evenodd">
        <g id="空状态" transform="translate(-119.000000, -266.000000)">
            <g id="分组-2" transform="translate(119.000000, 266.000000)">
                <g id="分组">
                    <g>
                        <path d="M136.238961,68.1954023 C136.238961,105.643862 105.78487,136 68.219075,136 C30.6532795,136 0.199188636,105.643862 0.199188636,68.1954023 C0.199188636,30.7469425 30.6532795,0.390804598 68.219075,0.390804598 C105.78487,0.390804598 136.238961,30.7469425 136.238961,68.1954023" id="Fill-1" fill="#F8F9FF"></path>
                        <g transform="translate(0.568182, 67.218391)">
                            <mask id="mask-2" fill="white">
                                <use xlink:href="#path-1"></use>
                            </mask>
                            <g id="Clip-4"></g>
                            <path d="M134.623234,12.7797793 C115.552575,5.33573333 92.4971659,0.975917241 67.649325,0.97748046 C42.8030523,0.97748046 19.7476432,5.34042299 0.680120455,12.784469 C6.28793864,44.5990897 34.1278705,68.7820782 67.6508932,68.7820782 C101.177052,68.7820782 129.016984,44.5975264 134.623234,12.7797793" id="Fill-3" fill="#FBFDFF" mask="url(#mask-2)"></path>
                        </g>
                    </g>
                    <g>
                        <mask id="mask-4" fill="white">
                            <use xlink:href="#path-3"></use>
                        </mask>
                        <g id="Clip-6"></g>
                        <polygon id="Fill-5" fill="#DBE0EE" mask="url(#mask-4)" points="-3.41813636 113.625655 75.383 113.625655 75.383 22.7635862 -3.41813636 22.7635862"></polygon>
                        <polygon id="Fill-7" fill="#C8D1E2" mask="url(#mask-4)" points="-5.70438864 31.7528736 69.6671341 31.7528736 72.7047023 27.0632184 -2.568025 27.0632184"></polygon>
                        <polygon id="Fill-8" fill="#C8D1E2" mask="url(#mask-4)" points="-5.70438864 61.2257931 69.6671341 61.2257931 72.7047023 57.8054713 -2.568025 57.8054713"></polygon>
                        <polygon id="Fill-9" fill="#C8D1E2" mask="url(#mask-4)" points="-5.70438864 79.7241379 69.6671341 79.7241379 72.7047023 80.7011494 -2.568025 80.7011494"></polygon>
                        <polygon id="Fill-10" fill="#C8D1E2" mask="url(#mask-4)" points="-5.70438864 106.943834 69.6671341 106.943834 72.7047023 111.63349 -2.568025 111.63349"></polygon>
                        <polygon id="Fill-11" fill="#D5DBE8" mask="url(#mask-4)" points="69.66635 31.7528736 72.7039182 27.0632184 72.7039182 49.9909425 69.66635 49.9909425"></polygon>
                        <polygon id="Fill-12" fill="#D5DBE8" mask="url(#mask-4)" points="69.66635 106.787356 72.7039182 111.477011 72.7039182 88.5492874 69.66635 88.5492874"></polygon>
                        <polygon id="Fill-13" fill="#D5DBE8" mask="url(#mask-4)" points="69.66635 61.2257931 72.7039182 57.8054713 72.7039182 80.7331954 69.66635 79.7233563"></polygon>
                        <path d="M81.3297023,109.913793 L80.5456114,109.913793 L80.5456114,88.5492874 L80.5456114,80.7331954 L80.5456114,57.8070345 L80.5456114,49.9909425 L80.5456114,27.0632184 L81.3297023,27.0632184 C83.4953614,27.0632184 85.2501568,25.313977 85.2501568,23.1551724 C85.2501568,20.9963678 83.4953614,19.2471264 81.3297023,19.2471264 L-7.27257045,19.2471264 L-7.27257045,27.0632184 L72.7047023,27.0632184 L72.7047023,49.9909425 L-11.9771159,49.9909425 L-11.9771159,57.8070345 L72.7047023,57.8070345 L72.7047023,80.7331954 L-11.9771159,80.7331954 L-11.9771159,88.5492874 L72.7047023,88.5492874 L72.7047023,109.913793 L-7.27257045,109.913793 L-7.27257045,117.729885 L81.3297023,117.729885 C83.4953614,117.729885 85.2501568,115.980644 85.2501568,113.821839 C85.2501568,111.663034 83.4953614,109.913793 81.3297023,109.913793" id="Fill-14" fill="#ECECF9" mask="url(#mask-4)"></path>
                        <path d="M21.9439114,72.0607724 L25.6761841,72.0607724 C25.9788432,72.0607724 26.2234795,72.3046345 26.2234795,72.6063356 C26.2234795,72.7407724 26.1732977,72.8705195 26.0854795,72.9705655 C25.770275,73.3191632 25.615025,73.7209103 25.615025,74.1758069 C25.615025,75.557692 27.9453432,75.4920368 27.5423205,77.1443586 C27.1392977,78.7966805 25.6777523,80.0581977 23.8100477,80.0566345 C21.9439114,80.0550713 20.3929795,78.4293241 20.077775,77.139669 C19.7625705,75.8500138 22.0050705,75.3232092 22.0050705,74.1664276 C22.0050705,73.775623 21.8419795,73.403577 21.5110932,73.0471632 C21.2899795,72.809554 21.3040932,72.437508 21.5424568,72.2170943 C21.6522295,72.1170483 21.7949341,72.0607724 21.9439114,72.0607724" id="Fill-15" fill="#FFFFFF" mask="url(#mask-4)"></path>
                        <path d="M25.6147114,74.1758069 C25.6147114,73.7209103 25.7715295,73.3191632 26.0851659,72.9705655 C26.1729841,72.8705195 26.2247341,72.7407724 26.2247341,72.6063356 C26.2247341,72.3046345 25.9785295,72.0607724 25.6758705,72.0607724 L25.3496886,72.0607724 C25.6523477,72.0607724 25.7809386,72.3046345 25.7809386,72.6063356 C25.7809386,72.7407724 25.7166432,72.8705195 25.628825,72.9705655 C25.3151886,73.3191632 25.2885295,73.7209103 25.2885295,74.1758069 C25.2885295,75.557692 26.9837341,75.5498759 26.7720295,77.2381517 C26.6606886,78.1338759 25.4437795,79.9612782 23.6670295,80.0410023 C23.7156432,80.0441287 23.7611205,80.0566345 23.8113023,80.0566345 C25.6774386,80.0581977 27.1405523,78.7966805 27.5420068,77.1443586 C27.9450295,75.4920368 25.6147114,75.557692 25.6147114,74.1758069" id="Fill-16" fill="#F2F4F3" mask="url(#mask-4)"></path>
                        <path d="M15.7049,69.5830713 L20.7497409,69.5830713 C21.1590364,69.5830713 21.4883545,69.9129103 21.4883545,70.3209103 C21.4883545,70.5006805 21.4224909,70.6773241 21.3001727,70.8117609 C20.8783318,71.2838529 20.6666273,71.8278529 20.6666273,72.4421977 C20.6666273,74.3086805 23.8171045,74.219577 23.2713773,76.4534161 C22.7272182,78.685692 20.7497409,80.3911632 18.2265364,80.3896 C15.7033318,80.3880368 13.6066727,78.1901517 13.1832636,76.4471632 C12.7567182,74.7026115 15.7880136,73.9929103 15.7880136,72.4281287 C15.7880136,71.8997609 15.5653318,71.3964046 15.1199682,70.9180598 C14.8220136,70.5944736 14.8392636,70.0926805 15.1623091,69.7941057 C15.3097182,69.6581057 15.5041727,69.5830713 15.7049,69.5830713" id="Fill-17" fill="#FFFFFF" mask="url(#mask-4)"></path>
                        <path d="M20.6667841,72.4415724 C20.6667841,71.8272276 20.8784886,71.2832276 21.3003295,70.8126989 C21.4210795,70.6766989 21.4885114,70.5016184 21.4885114,70.3202851 C21.4885114,69.9122851 21.157625,69.582446 20.7498977,69.582446 L20.3076705,69.582446 C20.7169659,69.582446 20.8926023,69.9122851 20.8926023,70.3202851 C20.8926023,70.5016184 20.8047841,70.6766989 20.6840341,70.8126989 C20.260625,71.2832276 20.226125,71.8272276 20.226125,72.4415724 C20.226125,74.3080552 22.5156705,74.2986759 22.2302614,76.5794115 C22.0797159,77.7893425 20.4346932,80.2607908 18.0322386,80.3686529 C18.0981023,80.3717793 18.1592614,80.3889747 18.2266932,80.3889747 C20.7498977,80.3905379 22.7258068,78.6866299 23.2715341,76.4527908 C23.8172614,74.2205149 20.6667841,74.3080552 20.6667841,72.4415724" id="Fill-18" fill="#F2F4F3" mask="url(#mask-4)"></path>
                        <path d="M62.6753955,45.5043494 C62.6126682,45.4105563 62.5342591,45.3167632 62.4715318,45.2229701 C62.3931227,45.1135448 62.3162818,45.0197517 62.2378727,44.9259586 C62.0167591,45.1135448 61.8285773,45.379292 61.6419636,45.5981425 C61.5792364,45.6763034 61.4835773,45.7857287 61.3910545,45.895154 C61.3110773,45.9889471 61.2028727,46.0827402 61.1072136,46.1140046 C60.9190318,45.895154 60.6524409,45.7388322 60.4328955,45.5356138 C60.3560545,45.4730851 60.2917591,45.3949241 60.2149182,45.3167632 C60.1192591,45.2073379 60.0267364,45.0979126 59.9153955,45.0197517 C59.7428955,45.301131 59.5076682,45.5668782 59.3053727,45.8326253 C59.2426455,45.895154 59.1313045,46.0983724 59.00585,46.2390621 C58.9274409,46.3328552 58.8506,46.3953839 58.7878727,46.3953839 C58.5981227,46.4110161 58.1747136,45.9107862 58.0178955,45.7700966 C57.9394864,45.6919356 57.8453955,45.5981425 57.7669864,45.5043494 C57.6885773,45.4105563 57.5960545,45.3167632 57.5003955,45.2542345 C57.2040091,45.5356138 56.9044864,45.8169931 56.6378955,46.1296368 L56.6237818,46.145269 C56.4826455,46.3015908 56.4199182,46.3953839 56.2144864,46.2546943 C56.0435545,46.1296368 55.8851682,45.9576828 55.7440318,45.8013609 C55.6515091,45.7075678 55.4476455,45.5356138 55.2892591,45.379292 C55.1481227,45.2542345 55.0226682,45.1604414 55.0226682,45.1604414 C55.0226682,45.1604414 54.7403955,45.3949241 54.6463045,45.4887172 L54.6306227,45.5043494 C54.5851455,45.551246 54.5224182,45.5981425 54.4596909,45.6450391 C54.3797136,45.7075678 54.2856227,45.7700966 54.1931,45.8482575 C54.0833273,45.5043494 54.0190318,45.1448092 54.0049182,44.785269 C54.1131227,44.707108 54.2228955,44.6133149 54.3342364,44.535154 C54.34835,44.5195218 54.34835,44.5195218 54.3640318,44.5038897 C54.6149409,44.2694069 54.9301455,44.0349241 55.2265318,43.8786023 C55.2892591,43.941131 55.3692364,44.019292 55.4147136,44.0974529 C55.6985545,44.4100966 55.9165318,44.785269 56.2144864,45.0197517 C56.3242591,44.9415908 56.4199182,44.8790621 56.5124409,44.8009011 C56.6692591,44.6602115 56.8276455,44.5195218 56.9672136,44.3475678 C57.1412818,44.1756138 57.3122136,43.941131 57.5160773,43.8004414 C57.6117364,43.8786023 57.6885773,43.9567632 57.7826682,44.0349241 C57.9551682,44.1599816 58.1135545,44.2850391 58.2546909,44.4257287 C58.4256227,44.6133149 58.5981227,44.8477977 58.8019864,45.0041195 C58.8803955,44.9103264 58.9431227,44.8009011 59.00585,44.6914759 C59.1015091,44.5664184 59.1940318,44.4100966 59.2896909,44.2850391 C59.35085,44.1756138 59.5860773,43.7379126 59.7272136,43.7222805 C59.7899409,43.7222805 59.9153955,43.8629701 59.9938045,43.9723954 C60.0565318,44.0349241 60.1035773,44.0818207 60.1192591,44.0974529 C60.2290318,44.191246 60.3560545,44.2850391 60.4485773,44.4100966 C60.6069636,44.5664184 60.7622136,44.7227402 60.90335,44.8946943 L61.1699409,44.6289471 C61.3424409,44.4569931 61.5165091,44.2694069 61.6874409,44.0661885 C61.8285773,43.8942345 61.93835,43.7066483 62.0794864,43.5346943 C62.1578955,43.6441195 62.2519864,43.7535448 62.3460773,43.8629701 C62.5044636,44.0505563 62.6597136,44.2537747 62.8181,44.4413609 C62.8181,44.6289471 62.8181,44.8009011 62.7851682,44.957223 C62.7710545,45.1448092 62.7224409,45.3323954 62.6753955,45.5043494 M62.8635773,43.8629701 C62.7553727,43.4096368 62.5342591,43.0032 62.28335,42.7218207 C61.8913045,42.2841195 61.3910545,41.987108 60.8578727,41.7369931 C61.1542591,41.1273379 61.4051682,40.5333149 61.6247136,39.8454989 C61.6874409,39.6735448 61.8756227,39.345269 61.8599409,39.1889471 C61.8128955,38.7199816 60.8735545,38.579292 60.3560545,38.501131 C59.7428955,38.4073379 59.1469864,38.3448092 58.5510773,38.3448092 C57.7999182,38.3135448 57.0456227,38.3760736 56.2615318,38.501131 C55.7440318,38.579292 54.8517364,38.7668782 54.8344864,39.2045793 C54.8344864,39.345269 54.9771909,39.5015908 55.03835,39.6266483 C55.3363045,40.3144644 55.5244864,41.221131 55.9165318,41.8776828 C55.1951682,42.1903264 54.4894864,42.6436598 54.1460545,43.347108 C53.9719864,43.7066483 53.8167364,44.191246 53.8010545,44.6445793 C53.7838045,45.6294069 54.2385773,46.4579126 54.6776682,47.1144644 C55.1324409,47.8022805 55.7769636,48.3494069 56.2144864,48.9277977 C55.7440318,49.381131 56.2944636,49.6937747 56.7790318,49.8188322 C57.3451455,49.9595218 58.0037818,50.0220506 58.6467364,49.975154 C58.9431227,49.975154 59.2269636,49.9438897 59.5076682,49.8969931 C60.0565318,49.8032 60.9990091,49.5843494 60.55835,48.9903264 C61.0288045,48.3806713 61.5619864,47.7397517 62.0638045,47.0050391 C62.4088045,46.489177 62.80085,45.8795218 62.9263045,45.1448092 C62.97335,44.9259586 62.9890318,44.6914759 62.97335,44.4413609 C62.9592364,44.2381425 62.9263045,44.0505563 62.8635773,43.8629701" id="Fill-19" fill="#FFFFFF" mask="url(#mask-4)"></path>
                        <path d="M62.064275,47.0048828 C61.564025,47.7395954 61.0308432,48.3805149 60.5588205,48.9901701 C61.0135932,49.5841931 60.0726841,49.8030437 59.5081386,49.8968368 C59.0706159,49.9749977 58.5985932,50.0062621 58.1281386,49.9749977 C58.4276614,49.9749977 58.7083659,49.9437333 58.9906386,49.8968368 C59.5410705,49.8030437 60.4804114,49.5841931 60.0428886,48.9901701 C60.5133432,48.3805149 61.046525,47.7395954 61.5483432,47.0048828 C61.8933432,46.4890207 62.2853886,45.8793655 62.4108432,45.1446529 C62.5033659,45.2540782 62.581775,45.3791356 62.6774341,45.5041931 C62.7872068,45.1759172 62.8326841,44.8320092 62.8170023,44.4412046 C62.6617523,44.2536184 62.5033659,44.0504 62.3481159,43.8628138 C62.236775,43.4094805 62.0187977,43.0030437 61.7678886,42.7216644 C61.3758432,42.2839632 60.8724568,41.9869517 60.339275,41.7368368 C60.6387977,41.1271816 60.8881386,40.5331586 61.1092523,39.8453425 C61.1719795,39.6733885 61.3601614,39.3451126 61.3429114,39.1887908 C61.2974341,38.7198253 60.3549568,38.5791356 59.8374568,38.5009747 C59.2258659,38.4071816 58.631525,38.3446529 58.0356159,38.3446529 C58.804025,38.3133885 59.5708659,38.3759172 60.3549568,38.5009747 C60.8724568,38.5791356 61.8306159,38.7198253 61.8604114,39.1887908 C61.8776614,39.3451126 61.7051614,39.6733885 61.6408659,39.8453425 C61.4056386,40.5331586 61.1562977,41.1271816 60.8724568,41.7368368 C61.4056386,41.9869517 61.8933432,42.2839632 62.2853886,42.7216644 C62.6445023,43.1281011 62.944025,43.7846529 62.9738205,44.4412046 C63.0365477,45.5041931 62.5190477,46.3326989 62.064275,47.0048828" id="Fill-20" fill="#F2F4F3" mask="url(#mask-4)"></path>
                        <path d="M49.7883909,107.452193 C49.7883909,107.613205 49.8683682,107.76171 50.0016636,107.849251 L50.3686182,108.093113 C50.4548682,108.150952 50.5066182,108.247871 50.5066182,108.352607 C50.5066182,108.524561 50.36705,108.663687 50.1961182,108.663687 L49.4543682,108.663687 C48.9650955,108.663687 48.5526636,108.293205 48.5024818,107.807044 L48.1182773,104.097526 C48.7753455,104.025618 49.3195045,103.888055 49.7883909,103.470676 L49.7883909,107.452193 Z" id="Fill-21" fill="#FFFFFF" mask="url(#mask-4)"></path>
                        <path d="M45.4774591,104.047191 L45.4774591,108.424202 C45.4774591,108.557076 45.5840955,108.663375 45.7158227,108.663375 L46.1956864,108.663375 C46.3274136,108.663375 46.43405,108.557076 46.43405,108.424202 L46.43405,104.047191 L45.4774591,104.047191 Z" id="Fill-22" fill="#FFFFFF" mask="url(#mask-4)"></path>
                        <path d="M42.1235886,103.470051 L42.1235886,107.451568 C42.1235886,107.612579 42.0436114,107.761085 41.9103159,107.850189 L41.5433614,108.094051 C41.4571114,108.15189 41.4053614,108.248809 41.4053614,108.351982 C41.4053614,108.523936 41.5449295,108.663062 41.7158614,108.663062 L42.4576114,108.663062 C42.9468841,108.663062 43.3593159,108.292579 43.4094977,107.806418 L43.7984068,104.059384 C43.1397705,103.987476 42.592475,103.888993 42.1235886,103.470051" id="Fill-23" fill="#FFFFFF" mask="url(#mask-4)"></path>
                        <path d="M50.819,100.42537 C50.819,100.547301 50.8033182,100.666106 50.7845,100.783347 L41.1276364,100.783347 C41.1088182,100.666106 41.0931364,100.547301 41.0931364,100.42537 L41.0931364,99.3514391 L50.819,99.3514391 L50.819,100.42537 Z M51.7034545,97.2020138 L51.7034545,95.0525885 C51.7034545,94.9212782 51.5968182,94.8149793 51.4650909,94.8134161 L50.9852273,94.8134161 C50.8535,94.8149793 50.7468636,94.9212782 50.7468636,95.0525885 L50.7468636,97.2020138 L41.1652727,97.2020138 L41.1652727,95.0525885 C41.1652727,94.9212782 41.0570682,94.8149793 40.9253409,94.8134161 L40.4470455,94.8134161 C40.3153182,94.8149793 40.2071136,94.9212782 40.2071136,95.0525885 L40.2071136,97.2020138 C39.9420909,97.2020138 39.7288182,97.4161747 39.7288182,97.6787954 C39.7288182,97.9429793 39.9420909,98.1571402 40.2071136,98.1571402 C40.4705682,98.1571402 40.6854091,98.3713011 40.6854091,98.6339218 L40.6854091,100.544175 C40.6854091,102.390336 42.1877273,103.887899 44.03975,103.887899 L47.8723864,103.887899 C49.7244091,103.887899 51.2267273,102.390336 51.2267273,100.544175 L51.2267273,98.6339218 C51.2267273,98.3713011 51.44,98.1571402 51.7034545,98.1571402 C51.9684773,98.1571402 52.1833182,97.9429793 52.1833182,97.6787954 C52.1833182,97.4161747 51.9684773,97.2020138 51.7034545,97.2020138 Z" id="Fill-24" fill="#FFFFFF" mask="url(#mask-4)"></path>
                        <path d="M50.5066182,108.346823 C50.5066182,108.518777 50.3639136,108.659467 50.1929818,108.659467 L49.7225273,108.659467 C49.8934591,108.659467 50.0345955,108.518777 50.0345955,108.346823 C50.0345955,108.25303 49.9718682,108.143605 49.8934591,108.096708 L49.5170955,107.846593 C49.3932091,107.768432 49.3132318,107.61211 49.3132318,107.455789 L49.3132318,103.782225 C49.4873,103.704064 49.64255,103.610271 49.7852545,103.469582 L49.7852545,107.455789 C49.7852545,107.61211 49.8793455,107.768432 50.0048,107.846593 L50.3639136,108.096708 C50.4595727,108.143605 50.5066182,108.25303 50.5066182,108.346823" id="Fill-25" fill="#F2F4F3" mask="url(#mask-4)"></path>
                        <path d="M52.183475,97.6858299 C52.183475,97.9359448 51.9639295,98.1547954 51.7130205,98.1547954 C51.4464295,98.1547954 51.2284523,98.373646 51.2284523,98.6393931 L51.2284523,100.54652 C51.2284523,101.875255 50.4443614,103.032037 49.3137023,103.563531 L49.3137023,103.469738 C49.2196114,103.547899 49.1255205,103.62606 49.0314295,103.672956 C48.6707477,103.813646 48.2787023,103.891807 47.870975,103.891807 L47.4005205,103.891807 C49.1725659,103.891807 50.630975,102.516175 50.7407477,100.779439 L50.7877932,100.779439 C50.803475,100.671577 50.8191568,100.54652 50.8191568,100.421462 L50.8191568,99.3584736 L50.7564295,99.3584736 L50.7564295,98.6393931 C50.7564295,98.373646 50.9618614,98.1547954 51.2284523,98.1547954 C51.4950432,98.1547954 51.7130205,97.9359448 51.7130205,97.6858299 C51.7130205,97.4200828 51.4950432,97.2012322 51.2284523,97.2012322 L51.2284523,95.059623 C51.2284523,94.9173701 51.1171114,94.809508 50.9916568,94.809508 L51.4621114,94.809508 C51.6032477,94.809508 51.7130205,94.9173701 51.7130205,95.059623 L51.7130205,97.2012322 C51.9639295,97.2012322 52.183475,97.4200828 52.183475,97.6858299" id="Fill-26" fill="#F2F4F3" mask="url(#mask-4)"></path>
                    </g>
                    <g transform="translate(92.000000, 75.000000)">
                        <path d="M3.20797143,43.8603 C1.71354286,43.8603 0.501971429,42.7823 0.501971429,41.4544429 L6.09468571,3.2483 C6.09468571,1.92044286 7.30468571,0.842442857 8.79911429,0.842442857 C10.2919714,0.842442857 11.5019714,1.92044286 11.5019714,3.2483 L5.9124,41.4544429 C5.9124,42.7823 4.70082857,43.8603 3.20797143,43.8603" id="Fill-27" fill="#D9DEEF"></path>
                        <path d="M25.8954714,43.8603 C24.4010429,43.8603 23.1894714,42.7823 23.1894714,41.4544429 L28.7821857,3.2483 C28.7821857,1.92044286 29.9921857,0.842442857 31.4866143,0.842442857 C32.9794714,0.842442857 34.1894714,1.92044286 34.1894714,3.2483 L28.5999,41.4544429 C28.5999,42.7823 27.3883286,43.8603 25.8954714,43.8603" id="Fill-29" fill="#D9DEEF"></path>
                        <path d="M16.4163,34.6611571 L15.1230143,26.3137286 L32.4087286,26.3137286 L33.7020143,34.6611571 L16.4163,34.6611571 Z M13.2153,14.0031571 L30.5010143,14.0031571 L31.7943,22.3521571 L14.5085857,22.3521571 L13.2153,14.0031571 Z M34.3148714,3.11787143 C34.3148714,1.60615714 33.0781571,0.367871429 31.5648714,0.367871429 C30.0531571,0.367871429 28.8148714,1.60615714 28.8148714,3.11787143 L29.8865857,10.0415857 L12.6008714,10.0415857 L11.5291571,3.11787143 C11.5291571,1.60615714 10.2924429,0.367871429 8.77915714,0.367871429 C7.26744286,0.367871429 6.02915714,1.60615714 6.02915714,3.11787143 L13.4934429,51.2915857 C13.4934429,52.8048714 14.7317286,54.0415857 16.2434429,54.0415857 C17.7567286,54.0415857 18.9934429,52.8048714 18.9934429,51.2915857 L17.0307286,38.6227286 L34.3164429,38.6227286 L36.2791571,51.2915857 C36.2791571,52.8048714 37.5174429,54.0415857 39.0291571,54.0415857 C40.5424429,54.0415857 41.7791571,52.8048714 41.7791571,51.2915857 L34.3148714,3.11787143 Z" id="Fill-31" fill="#F2F4F3"></path>
                        <polygon id="Fill-33" fill="#DDDEE7" points="31.3140714 15.4135143 13.4595 15.4135143 13.2143571 14.0039429 33.4087857 13.9725143"></polygon>
                        <polygon id="Fill-35" fill="#DDDEE7" points="33.1465143 27.6895143 15.3610857 27.6895143 15.2070857 26.2485143 35.2428 26.2485143"></polygon>
                        <polygon id="Fill-37" fill="#DDDEE7" points="34.9802143 39.9663 17.2875 39.9663 17.0392143 38.5253 37.0749286 38.5253"></polygon>
                    </g>
                </g>
                <text id="暂无数据" font-family="PingFang-SC-Regular, PingFang SC" font-size="13" font-weight="normal" letter-spacing="-0.312" fill="#666666">
                    <tspan x="43" y="159">暂无数据</tspan>
                </text>
            </g>
        </g>
    </g>
</svg>